<?xml version="1.0" encoding="iso-8859-1"?>
<!-- Uploaded to: SVG Repo, www.svgrepo.com, Generator: SVG Repo Mixer Tools -->
<!DOCTYPE svg PUBLIC "-//W3C//DTD SVG 1.1//EN" "http://www.w3.org/Graphics/SVG/1.1/DTD/svg11.dtd">
<svg fill="#e46b70" version="1.1" id="Capa_1" xmlns="http://www.w3.org/2000/svg" xmlns:xlink="http://www.w3.org/1999/xlink" 
	 width="800px" height="800px" viewBox="0 0 47.584 47.584"
	 xml:space="preserve">
<g>
	<g>
		<path d="M23.791,0c-6.423,0-11.63,4.547-11.63,10.158c0,5.243,4.55,9.557,10.389,10.098c0,0.459,0,0.986,0,1.54h-0.516
			c-0.771,0-1.396,0.625-1.396,1.396s0.625,1.396,1.396,1.396h0.517c0,0.779,0,1.449,0,1.852c0,1.341-1.351,2.545-1.41,5.082h5.008
			c-0.059-2.537-1.409-3.741-1.409-5.082c0-0.401,0-1.071,0-1.852h0.221c0.771,0,1.396-0.625,1.396-1.396s-0.625-1.396-1.396-1.396
			H24.74c0-0.547,0-1.067,0-1.522c5.978-0.422,10.683-4.785,10.683-10.115C35.42,4.547,30.214,0,23.791,0z M26.017,14.136
			l-2.151,1.604l-1.728-1.209c-2.514-1.884-4.779-3.436-4.795-5.08c-0.017-1.884,1.5-3.43,3.384-3.447
			c1.121-0.012,2.175,0.529,2.818,1.445l0.234,0.335l0.229-0.338c0.625-0.929,1.667-1.49,2.789-1.502
			c1.885-0.016,3.43,1.502,3.446,3.385C30.257,10.877,28.302,12.371,26.017,14.136z"/>
		<path d="M24.739,36.342c0-1.596,1.271-1.992,1.396-4.311h-4.982c0.125,2.318,1.397,2.715,1.397,4.311c0,1.678,0,7.889,0,7.889
			h0.031v3.354h2.15v-0.371h5.373v-5.785h-5.365C24.739,39.55,24.739,37.264,24.739,36.342z M28.21,42.412h0.471v3.812H28.21V42.412
			z"/>
	</g>
</g>
</svg>